<svg viewBox="0 0 28 10" xmlns="http://www.w3.org/2000/svg">
    <style type="text/css">
      /* <![CDATA[ */
      .g {
        stroke: #454545;
        stroke-width: 7;
        fill: #fefefe;
      }
      /* ]]> */
    </style>
    <svg class="maceta" x="1" y="4.5" width="4" height="3" viewBox="0 0 400 300">
        <rect class="g p-1" x="0" y="0" width="33%" height="100%" />
        <rect class="g p-2" x="33%" y="0" width="33%" height="33%" />
        <rect class="g p-2" x="66%" y="33%" width="33%" height="67%" />
        <rect class="g p-3" x="33%" y="33%" width="33%" height="33%" />
        <rect class="g p-4" x="66%" y="0" width="33%" height="33%" />
        <rect class="g p-5" x="33%" y="66%" width="33%" height="34%" />
        <text x="0" y="0" font-size="50" dominant-baseline="hanging" dx="10" dy="10">1</text>
        <text x="33%" y="0" font-size="50" dominant-baseline="hanging" dx="10" dy="10">2</text>
        <text x="66%" y="33%" font-size="50" dominant-baseline="hanging" dx="10" dy="10">2</text>
        <text x="33%" y="33%" font-size="50" dominant-baseline="hanging" dx="10" dy="10">3</text>
        <text x="66%" y="0" font-size="50" dominant-baseline="hanging" dx="10" dy="10">4</text>
        <text x="33%" y="66%" font-size="50" dominant-baseline="hanging" dx="10" dy="10">5</text>
    </svg>
    <svg class="maceta" x="7" y="1" width="4" height="3" viewBox="0 0 400 300">
        <rect class="g p-3" x="0" y="0" width="33%" height="50%" />
        <rect class="g p-5" x="0" y="50%" width="33%" height="50%" />
        <rect class="g p-6" x="33%" y="0" width="33%" height="100%" />
        <rect class="g p-7" x="66%" y="0" width="33%" height="50%" />
        <rect class="g p-8" x="66%" y="50%" width="33%" height="50%" />
        <text x="0" y="0" font-size="50" dominant-baseline="hanging" dx="10" dy="10">3</text>
        <text x="0" y="50%" font-size="50" dominant-baseline="hanging" dx="10" dy="10">5</text>
        <text x="33%" y="0" font-size="50" dominant-baseline="hanging" dx="10" dy="10">6</text>
        <text x="66%" y="0" font-size="50" dominant-baseline="hanging" dx="10" dy="10">7</text>
        <text x="66%" y="50%" font-size="50" dominant-baseline="hanging" dx="10" dy="10">8</text>
    </svg>
    <svg class="maceta" x="12" y="1" width="10" height="3" viewBox="0 0 1000 300">
        <rect class="g p-9" x="0" y="0" width="10%" height="25%" />
        <rect class="g p-9" x="45%" y="0" width="10%" height="25%" />
        <rect class="g p-9" x="90%" y="0" width="10%" height="25%" />
        <rect class="g p-10" x="10%" y="0" width="35%" height="25%" />
        <rect class="g p-10" x="55%" y="0" width="35%" height="25%" />
        <rect class="g p-11" x="0" y="25%" width="100%" height="25%" />
        <rect class="g p-12" x="0" y="50%" width="10%" height="25%" />
        <rect class="g p-12" x="90%" y="50%" width="10%" height="25%" />
        <rect class="g p-13" x="10%" y="50%" width="80%" height="25%" />
        <rect class="g p-14 highlight" x="0" y="75%" width="100%" height="25%" />
        <text x="0" y="0" font-size="50" dominant-baseline="hanging" dx="10" dy="10">9</text>
        <text x="45%" y="0" font-size="50" dominant-baseline="hanging" dx="10" dy="10">9</text>
        <text x="90%" y="0" font-size="50" dominant-baseline="hanging" dx="10" dy="10">9</text>
        <text x="10%" y="0" font-size="50" dominant-baseline="hanging" dx="10" dy="10">10</text>
        <text x="55%" y="0" font-size="50" dominant-baseline="hanging" dx="10" dy="10">10</text>
        <text x="0" y="25%" font-size="50" dominant-baseline="hanging" dx="10" dy="10">11</text>
        <text x="0" y="50%" font-size="50" dominant-baseline="hanging" dx="10" dy="10">12</text>
        <text x="90%" y="50%" font-size="50" dominant-baseline="hanging" dx="10" dy="10">12</text>
        <text x="10%" y="50%" font-size="50" dominant-baseline="hanging" dx="10" dy="10">13</text>
        <text x="0" y="75%" font-size="50" dominant-baseline="hanging" dx="10" dy="10">14</text>
    </svg>
    <svg class="maceta" x="22" y="4.5" width="3" height="5" viewBox="0 0 300 500">
        <rect class="g p-15" x="33%" y="0" width="66%" height="20%" />
        <rect class="g p-15" x="66%" y="80%" width="33%" height="20%" />
        <rect class="g p-15" x="66%" y="40%" width="33%" height="20%" />
        <rect class="g p-16" x="33%" y="80%" width="33%" height="20%" />
        <rect class="g p-10" x="33%" y="20%" width="33%" height="60%" />
        <rect class="g p-10" x="66%" y="20%" width="33%" height="20%" />
        <rect class="g p-10" x="66%" y="60%" width="33%" height="20%" />
        <rect class="g p-14 highlight" x="0" y="0" width="33%" height="100%" />
        <text x="33%" y="20%" font-size="50" dominant-baseline="hanging" dx="10" dy="10">10</text>
        <text x="66%" y="20%" font-size="50" dominant-baseline="hanging" dx="10" dy="10">10</text>
        <text x="66%" y="60%" font-size="50" dominant-baseline="hanging" dx="10" dy="10">10</text>
        <text x="0" y="0" font-size="50" dominant-baseline="hanging" dx="10" dy="10">14</text>
        <text x="33%" y="0" font-size="50" dominant-baseline="hanging" dx="10" dy="10">15</text>
        <text x="66%" y="80%" font-size="50" dominant-baseline="hanging" dx="10" dy="10">15</text>
        <text x="66%" y="40%" font-size="50" dominant-baseline="hanging" dx="10" dy="10">15</text>
        <text x="33%" y="80%" font-size="50" dominant-baseline="hanging" dx="10" dy="10">16</text>
    </svg>
    <svg class="maceta" x="5.2" y="4.7" width="1.6" height="1.6" viewBox="0 0 150 150">
        <circle class="g p-17" cx="50%" cy="50%" r="50%" />
        <text x="50%" y="50%" font-size="50" dominant-baseline="middle" text-anchor="middle">17</text>
    </svg>
    <svg class="maceta" x="5.4" y="6.6" width="1.2" height="1.2" viewBox="0 0 150 150">
        <circle class="g p-18" cx="50%" cy="50%" r="50%" />
        <text x="50%" y="50%" font-size="50" dominant-baseline="middle" text-anchor="middle">18</text>
    </svg>
    <svg class="maceta" x="22.4" y="1.7" width="1.6" height="1.6" viewBox="0 0 150 150">
        <circle class="g p-4" cx="50%" cy="50%" r="50%" />
        <text x="50%" y="50%" font-size="50" dominant-baseline="middle" text-anchor="middle">4</text>
    </svg>
</svg>
